<?xml version="1.0" encoding="UTF-8" standalone="no"?>
<svg
   xmlns:dc="http://purl.org/dc/elements/1.1/"
   xmlns:cc="http://creativecommons.org/ns#"
   xmlns:rdf="http://www.w3.org/1999/02/22-rdf-syntax-ns#"
   xmlns:svg="http://www.w3.org/2000/svg"
   xmlns="http://www.w3.org/2000/svg"
   id="svg1492"
   version="1.1"
   viewBox="0 0 181.40363 172.07582"
   height="172.07582mm"
   width="181.40363mm">
  <defs
     id="defs1486" />
  <metadata
     id="metadata1489">
    <rdf:RDF>
      <cc:Work
         rdf:about="">
        <dc:format>image/svg+xml</dc:format>
        <dc:type
           rdf:resource="http://purl.org/dc/dcmitype/StillImage" />
        <dc:title></dc:title>
      </cc:Work>
    </rdf:RDF>
  </metadata>
  <g
     transform="translate(-14.375567,-68.087093)"
     id="layer1">
    <path
       id="path256"
       style="fill:#00453b;fill-opacity:1;fill-rule:nonzero;stroke:none;stroke-width:0.35277775"
       d="M 143.47883,193.1775 H 83.999437 c -2.38901,0 -3.88196,-2.58586 -2.68746,-4.6542 l 29.739873,-51.51084 c 1.19415,-2.06869 4.18042,-2.06869 5.37422,0 l 29.74022,51.51084 c 1.1945,2.06834 -0.2988,4.6542 -2.68746,4.6542 m 11.36791,0.38735 c -1.84044,-0.23707 -2.46556,-2.57563 -0.98778,-3.69852 18.5614,-14.10688 24.17374,-40.15246 12.21105,-60.87251 L 130.90548,68.087093 c -20.70312,11.95317 -28.86745,37.282957 -19.88044,58.768537 0.71579,1.71203 -0.99554,3.42265 -2.70651,2.70651 -21.488403,-8.99336 -46.823843,-0.82973 -58.778423,19.87621 l -35.16454,60.90708 h 3.6e-4 c 20.67842,11.93871 46.65874,6.37152 60.78361,-12.10169 1.125,-1.47143 3.45757,-0.84525 3.69393,0.99166 2.97216,23.08754 22.700553,40.92751 46.597003,40.92751 h 70.32872 c 0,-23.89822 -17.84174,-43.62838 -40.93245,-46.59806" />
  </g>
</svg>
