<?xml version="1.0" encoding="UTF-8" standalone="no"?>
<svg
   xmlns:dc="http://purl.org/dc/elements/1.1/"
   xmlns:cc="http://creativecommons.org/ns#"
   xmlns:rdf="http://www.w3.org/1999/02/22-rdf-syntax-ns#"
   xmlns:svg="http://www.w3.org/2000/svg"
   xmlns="http://www.w3.org/2000/svg"
   id="svg8"
   version="1.1"
   viewBox="0 0 244.2762 172.07527"
   height="172.07527mm"
   width="244.2762mm">
  <defs
     id="defs2" />
  <metadata
     id="metadata5">
    <rdf:RDF>
      <cc:Work
         rdf:about="">
        <dc:format>image/svg+xml</dc:format>
        <dc:type
           rdf:resource="http://purl.org/dc/dcmitype/StillImage" />
        <dc:title></dc:title>
      </cc:Work>
    </rdf:RDF>
  </metadata>
  <g
     transform="translate(10.25715,-34.82546)"
     id="layer1">
    <g
       id="g831">
      <path
         style="fill:#38bdf8;fill-opacity:1;fill-rule:nonzero;stroke:none;stroke-width:0.35277712"
         d="m 127.71505,34.82546 c -20.70296,11.952979 -28.86694,37.282533 -19.87996,58.768504 0.716,1.711997 -0.9947,3.422295 -2.70579,2.706296 -18.932471,-7.923115 -40.848134,-2.527065 -53.970909,13.02867 0.949098,-0.0219 1.900597,-0.0341 2.856196,-0.0284 5.39379,0.0318 10.88568,0.49267 16.412969,1.26917 9.911683,1.39244 19.930664,3.80572 29.693744,6.58874 l 7.74069,-13.40745 c 1.194,-2.07 4.18029,-2.07 5.37429,0 l 12.31918,21.3372 c 4.13759,1.34512 8.18938,2.65959 12.04368,3.85248 10.25428,3.80412 19.47236,6.7086 27.72955,8.90437 5.66929,-13.16425 5.26919,-28.74589 -2.4484,-42.112678 z"
         id="path1339-5-2-2-7" />
      <path
         style="fill:#0284c7;fill-opacity:1;fill-rule:nonzero;stroke:none;stroke-width:0.35277712"
         d="m 41.136308,134.09639 c -1.823596,0.013 -3.558392,0.0689 -5.221891,0.15555 l -24.728155,42.83099 c 20.677964,11.93995 46.658817,6.37191 60.783892,-12.10109 1.124897,-1.47198 3.457294,-0.84582 3.693292,0.99115 2.972996,23.08799 22.700664,40.92774 46.596614,40.92774 h 70.33008 c 0,-18.87967 -11.13768,-35.15532 -27.19935,-42.62374 -7.00729,-1.10541 -14.61398,-2.82753 -22.82756,-5.35731 -0.5528,0.60132 -1.3441,0.99632 -2.2743,0.99633 H 80.809338 c -2.389095,0 -3.882195,-2.58603 -2.687196,-4.65502 l 8.628986,-14.94533 c -18.894766,-4.74977 -33.922639,-6.30288 -45.61482,-6.21927 z"
         id="path1339-5-2-2-4-2" />
      <path
         style="opacity:1;fill:#0284c7;fill-opacity:1;stroke:#0284c7;stroke-width:1.323;stroke-linecap:round;stroke-linejoin:round;stroke-miterlimit:4;stroke-dasharray:none;stroke-dashoffset:0;stroke-opacity:1"
         d="m 28.644831,130.67679 c -14.018575,1.00881 -27.1529506,5.38111 -38.2409312,15.19579 1.0272982,-0.55696 2.4732955,-1.26025 4.4237919,-2.0052 4.32759253,-1.65293 11.0329807,-3.47959 20.5530633,-4.19512 19.039565,-1.43051 49.340612,1.59053 94.436635,19.36028 32.61894,12.85305 57.16189,13.51474 73.54616,10.97327 11.60438,-1.80005 19.08577,-5.19234 22.47626,-7.02368 -0.65259,0.20604 -1.43079,0.4283 -2.37479,0.65293 -3.2206,0.76623 -8.18799,1.53352 -15.19107,1.5419 -14.00438,0.0167 -36.14944,-2.99666 -68.75588,-15.09286 -19.78987,-6.12503 -43.783523,-15.08552 -67.171581,-18.37125 -8.039785,-1.12947 -16.003873,-1.59071 -23.701658,-1.03606 z"
         id="rect2885-3-6" />
      <path
         style="opacity:1;fill:#38bdf8;fill-opacity:1;stroke:#38bdf8;stroke-width:1.32291663;stroke-linecap:round;stroke-linejoin:round;stroke-miterlimit:4;stroke-dasharray:none;stroke-dashoffset:0;stroke-opacity:1"
         d="m 56.163181,108.45169 c -14.018575,1.00881 -27.15295,5.38111 -38.240931,15.19579 1.027298,-0.55696 2.473296,-1.26024 4.423791,-2.0052 4.327594,-1.65293 11.032982,-3.47959 20.553064,-4.19512 19.039567,-1.43051 49.340615,1.59053 94.436635,19.36028 32.61894,12.85304 57.16189,13.51474 73.54616,10.97327 11.60438,-1.80005 19.08577,-5.19234 22.47627,-7.02368 -0.6526,0.20604 -1.4308,0.4283 -2.3748,0.65293 -3.22059,0.76623 -8.18799,1.53352 -15.19107,1.5419 -14.00438,0.0167 -36.14944,-2.99666 -68.75588,-15.09286 -19.78987,-6.12502 -43.78352,-15.08552 -67.171581,-18.37125 -8.039786,-1.12947 -16.003871,-1.59071 -23.701658,-1.03606 z"
         id="rect2885-3-6-0" />
    </g>
  </g>
</svg>
